<!-- Generator: Adobe Illustrator 22.1.0, SVG Export Plug-In . SVG Version: 6.00 Build 0)  -->
<svg version="1.1" id="man" xmlns="http://www.w3.org/2000/svg" xmlns:xlink="http://www.w3.org/1999/xlink" x="0px" y="0px" viewBox="0 0 312 289" style="enable-background:new 0 0 312 289;" xml:space="preserve" width="312" height="289">
<style type="text/css">
	.st0{fill:#070707;stroke:#0A0A0A;stroke-miterlimit:10;}
	.st1{fill:#020202;stroke:#0A0A0A;stroke-miterlimit:10;}
	.st2{fill:#9F5C2A;}
	.st3{fill:#B91412;}
	.st4{fill:#FF1718;}
	.st5{fill:#C6570D;}
	.st6{fill:#5E2A09;}
	.st7{fill:#95410A;}
	.st8{fill:#FF9553;}
	.st9{fill:#C0753C;}
	.st10{fill:#FF9651;}
	.st11{fill:#F7F3F0;}
	.st12{fill:#070707;}
	.st13{fill:#050505;}
	.st14{fill:#FF8D49;}
</style>
<polygon id="right_foot" class="st0" points="113.5,243.2 111.4,245 115.7,257.9 124.9,258.9 119.8,253.1 119.9,249.7 " />
<polygon id="left_foot_1_" class="st1" points="201.7,252.5 202.1,255.4 219.7,260.3 209.6,249.8 " />
<path id="pant" class="st2" d="M136.8,145.3c1.3,19.1,2.6,38.2,3.9,57.3L113.3,242c0,0,11.5,13.5,20.6,15.9c0,0,0.1-32.6,14.4-53.4  l3.8-41.9l3.1-1.6l21.8,42.9c0,0,12.1,33.1,12.8,51.3l20-5.9l1.6-0.9L188.5,205l-23.9-53.4c0,0-2.4-4.4-1.7-8.3  C154.2,144,145.5,144.6,136.8,145.3z" />
<path id="shirt_1" class="st3" d="M141.5,102.5l-9,25.3l3.9,12.3c0.1,1.8,0.3,3.5,0.4,5.3c4.6-0.4,9.2-0.7,13.8-1.1l-1.9-30.3  L141.5,102.5z" />
<path id="shirt_2" class="st3" d="M155,102.5c-1.3,3.5-2.5,7-3.8,10.5c0.9,10.3,1.8,20.6,2.6,31c3-0.2,6-0.4,9-0.6  c0.1-0.7,0.1-1.4,0.2-2.1l-0.9-20.5L155,102.5z" />
<path id="shirt_3" class="st4" d="M125.6,98.5l9.6-9l0.7-0.6l2.4-0.5l0,0c1.3,0.7,2.7,1.4,4,2.1l7.8,24.1c0.5-3.9,1-7.8,1.4-11.9  c0.5-4.7,0.9-9.3,1.2-13.7c0.3-0.5,0.7-1,1-1.5c0,0,1.7,0.5,3.4,0.1l10.5,3.9c-3.2,2.2-6.3,4.4-9.5,6.6c-2.3,5-4.5,9.9-6.8,14.9  c0.1,0.9,2.5,29,2.6,30c0,0,0.1,1,0.1,1c-1.1,0.1-2.3,0.2-3.4,0.2c-0.6-10.1-1.3-20.2-1.9-30.3l-7.1-11.4c-0.7-1.2-1.5-2.5-2.2-3.7  C134.7,98.7,130.2,98.6,125.6,98.5z" />
<path id="coach_1" class="st5" d="M133.1,126.4c-0.9-5.5-1.8-10.9-2.6-16.4l4.3-3.8l-4.3-3.8l4.3-3.8l4.5,0.1l2.2,3.7  C138.7,110.5,135.9,118.4,133.1,126.4z" />
<path id="coach_2" class="st5" d="M155,102.5c2.7,6.9,5.4,13.8,8.1,20.7c0.3-6.6,0.5-13.2,0.8-19.9l-3.9-0.9l1.4-3.8  c-0.6-0.9-1.3-1.7-1.9-2.6C158,98.2,156.5,100.4,155,102.5z" />
<path id="coach_3" class="st6" d="M126.1,148c2.1-6.8,4.3-13.5,6.4-20.3l3.9,12.3c0.1,1.8,0.3,3.5,0.4,5.3  C133.2,146.2,129.7,147.1,126.1,148z" />
<path id="coach_4" class="st6" d="M162.3,120.8c0.2,7.3,0.5,14.7,0.7,22c3.1-0.2,6.2-0.5,9.2-0.7C168.9,135,165.6,127.9,162.3,120.8  z" />
<path id="coach_5" class="st7" d="M126.1,148c2.3-7.2,4.7-14.4,7-21.6c-0.9-5.5-1.8-10.9-2.6-16.4l4.3-3.8l-4.3-3.8l4.3-3.8  l-9.1-0.2l3.8-3.8l-20.6-4.6l9.4-7.8l-3.3-4.3c0,0-25.1,12.2-22.6,13.4c0,0,8.7,7.8,31.4,19.4l-3.4,37.9l-2.9,1.4  c0,0,5.9,4.3,7.8,2.5L126.1,148z" />
<path id="coach_6" class="st7" d="M163.9,93.6c0,0,12.1-4.6,15.8-4.2l-7.3-5.8l4.2-6.1l23.5,13.7c0,0,6.3-1-29.1,20.6  c0,0-0.2,12.3,9.7,30.1c0,0-4.4,5.6-5.9,5.3l-11.6-24l0.8-19.9l-3.9-0.9l1.4-3.8l-1.9-2.6L163.9,93.6z" />
<path id="neck" class="st8" d="M142.2,90.5c2.7,8.5,5.3,16.9,8,25.4c0.8-8.8,1.6-17.5,2.3-26.3c-0.1,0.3-1.3,2.9-4.2,3.5  C146.1,93.5,143.7,92.5,142.2,90.5z" />
<path id="shadow_neck" class="st9" d="M152.9,88.6c-0.7,0.7-1.8,1.6-3.4,2.2c-3.3,1.2-6.3,0.2-7.2-0.2c1.3,1.9,3.5,2.9,5.8,2.5  C150.4,92.7,152.3,90.9,152.9,88.6z" />
<path id="face" class="st10" d="M146.6,72.5c0,0,2.9,3.6,11.2,4.8c0,0-1.6,11.5-8.3,13.5c0,0-4.7,2.3-11.1-2.3  c-0.8-1-1.6-2.2-2.4-3.6c-1.5-2.7-2.4-5.2-3-7.2C133,77.7,143.5,77.8,146.6,72.5z" />
<path id="mouth" class="st11" d="M144.4,87.3c0,0,5.7-0.8,6.1-2.3C150.5,84.9,149.7,90.9,144.4,87.3z" />
<path id="left_eye" class="st12" d="M149.5,79.7c0,0-0.4,2.7,0.6,2.7c0,0,1.1,0,0.8-2.3c0,0,2.8,0,3.6-1.3c0,0-1-0.7-6.1-0.7  L149.5,79.7z" />
<path id="right_eye" class="st12" d="M141.8,80.3c0.2,0.7,0.4,1.7-0.1,2.3c0,0,0,0,0,0c-0.2,0-0.3,0-0.4-0.1c-0.6-0.2-0.8-1.1-0.8-2  c-0.5,0-1.1-0.1-1.8-0.4c-1-0.4-1.8-1-2.2-1.4c0.4-0.1,0.8-0.2,1.2-0.3c2.3-0.6,4.5-0.5,6.1-0.2C143.2,78.9,142.5,79.6,141.8,80.3z" />
<path id="hair" class="st13" d="M124.6,56.3c0,0-1.3-10.3,12.4-13.9s20.2,7.8,20.2,7.8s12.4,1.5,13.1,11.7c0.1,2.1,0.1,4.1,0,6.1  c-0.7,7.9-4.1,14.7-12.1,15.1c0,0,0.3,2.6-1.3,3.8c-1.1,0.8-2.9,0.4-2.9,0.5c0,0,1.2,0.1,1.2,0.1c0,0-0.4,0-1.5,0  c0,0,2.8-2.7,4-10.1c-2.5-0.1-6.3-0.8-9.7-3.5c-0.5-0.4-1-0.8-1.4-1.3c-0.1,0.2-0.2,0.3-0.3,0.5c-3,4.3-9.3,4.8-13.3,4.7  c0,0,1,4.8,5.1,10.5c0,0-4.7,1.9-5.5-4.9c0,0-11.3-3.5-13.3-10.1C119.3,73.2,114.1,61.2,124.6,56.3z" />
<path id="left_hand" class="st14" d="M170.3,67.9c0,1.4-0.2,3.3-0.9,5.4c-1.1,3.5-3.1,5.8-4.3,7c0.3,0.1,0.6,0.2,0.9,0.3  c1.7,0.4,3.1-0.2,3.8-0.5l3.2,2.4l3.1-4.6l-3.5-2.8C171.8,72.8,171.1,70.4,170.3,67.9z" />
<path id="right_hand" class="st14" d="M118.9,72c0.2,0.8,0.5,1.8,1.1,2.8c1.6,3,4.2,4.6,5.5,5.2c-1.2,0-2.5,0-3.7,0l-4,1.7l-2.4-3.2  l2.4-1.7L118.9,72z" />
</svg>