<?xml version="1.0" encoding="utf-8"?>
<!-- Generator: Adobe Illustrator 23.0.2, SVG Export Plug-In . SVG Version: 6.00 Build 0)  -->
<svg version="1.1" id="Layer_1" xmlns="http://www.w3.org/2000/svg" xmlns:xlink="http://www.w3.org/1999/xlink" x="0px" y="0px"
	 viewBox="0 0 375 500" style="enable-background:new 0 0 375 500;" xml:space="preserve">
<style type="text/css">
	.st0{fill:#DDBCA4;}
	.st1{fill:#EAD4C1;}
	.st2{fill:#893434;stroke:#000000;stroke-miterlimit:10;}
	.st3{fill:#54180A;stroke:#000000;stroke-miterlimit:10;}
	.st4{fill:#EAD4C1;stroke:#000000;stroke-miterlimit:10;}
	.st5{stroke:#000000;stroke-miterlimit:10;}
	.st6{fill:#FFFFFF;stroke:#000000;stroke-miterlimit:10;}
	.st7{fill:none;stroke:#000000;stroke-miterlimit:10;}
	.st8{fill:#EAAA9D;stroke:#A86252;stroke-miterlimit:10;}
	.st9{fill:#3D2C17;stroke:#000000;stroke-width:0.25;stroke-miterlimit:10;}
	.st10{fill:#070707;}
	.st11{fill:#472E1C;}
	.st12{fill:#FFFFFF;}
	.st13{fill:none;stroke:#A58426;stroke-width:2;stroke-miterlimit:10;}
	.st14{fill:#CECECE;}
	.st15{fill:none;stroke:#BC7261;stroke-miterlimit:10;}
	.st16{fill:#303030;}
	.st17{fill:#F2F2F2;}
	.st18{fill:#DBCBBF;}
	.st19{fill:none;stroke:#BFA997;stroke-width:0.25;stroke-miterlimit:10;}
	.st20{fill:#E8D3C4;}
	.st21{fill:#EDE6E2;}
</style>
<path class="st0" d="M245.8,322.5c0,0-2.8,45.5,5.2,58.5l-18.9,5.5C177.6,397.5,126,384,126,384c8-13,5.2-58.5,5.2-58.5"/>
<g id="ears">
	<path class="st1" d="M73.9,168.5c0,0-11.8-9.8-10.6,0.2c0,0,4.2,10.9,3.2,13.9c0,0-3.8,14.1,2.2,12c6-2.1,5.9-4.6,5.9-4.6"/>
	<path class="st1" d="M299.7,166.5c0,0,11.4-10.2,10.6-0.2c0,0-3.8,11.1-2.8,14.1c0,0,4.2,13.9-1.8,12c-6-1.9-6.1-4.4-6.1-4.4"/>
</g>
<path class="st1" d="M73.5,122.5v144.4c0,15.6,5.4,30.6,15.3,42.4l15.1,18c8.6,10.2,21.1,16.1,34.2,16.1H231"/>
<polygon class="st1" points="73.5,122.5 299.5,122.5 299.5,257.9 214,324 78,236 82,137 "/>
<path class="st1" d="M299.5,122.5v144.4c0,15.6-5.5,30.6-15.4,42.4l-15.1,18c-8.6,10.2-21.1,16.1-34.2,16.1H214"/>
<path class="st2" d="M73.5,122.5h226c0,0,8-92-56-102c0,0-70-11-126,6c-35.6,10.8-41.1,51.2-44,78C72.5,113.4,73.5,122.5,73.5,122.5
	z"/>
<path class="st3" d="M73.5,115.5l-63-1c0,0-6-1-10,5s73,3,73,3S73.5,118.5,73.5,115.5z"/>
<path class="st4" d="M283.5,122.5c2-33-16-29-16-29s-11,0-29,0s-14.8,29-14.8,29H283.5z"/>
<path class="st3" d="M184.7,16.2c-1.5-0.3-3.8-1.2-1.9-2.9c1.4-1.3,3.4-1.7,5.2-1.1c3.1,0.9,5.6,4.4-1.1,4.1
	C186.1,16.2,185.4,16.4,184.7,16.2z"/>
<path class="st3" d="M138.5,122.5c30.9-87,46-106,46-106s-36,35-59,106"/>
<path class="st3" d="M242.5,93.5c-11-35-53-75-53-75s28.6,13.8,68,75"/>
<path class="st5" d="M146.8,134c0,0-36.8,0.9-46.8,10.8l-5.9,5.6l53.6-12.4L146.8,134z"/>
<path class="st5" d="M224.7,132.5c0,0,35.9,6.9,44.9,16.9l5.3,5.7l-51.5-19.4L224.7,132.5z"/>
<path class="st6" d="M221.1,172.4c0.2-2,2.1-3.7,4.8-4.4c6.2-1.8,20.8-4.8,33,1c12.9,6.1-6,9.6-13.8,10.7c-2.2,0.3-4.4,0.4-6.6,0.2
	C232.5,179.4,220.6,177.7,221.1,172.4z"/>
<path class="st7" d="M181.5,209.5c0,0-21,14-5,20"/>
<path class="st7" d="M197.5,209.5c0,0,21,14,5,20"/>
<ellipse cx="184" cy="228" rx="2" ry="1"/>
<ellipse cx="196" cy="228" rx="2" ry="1"/>
<path class="st8" d="M189.3,257.3c-16-13.8-42,13.8-42,13.8s38.5,62,84,0C231.3,271,205.3,243.5,189.3,257.3"/>
<ellipse class="st9" cx="241.5" cy="172.7" rx="10" ry="7.2"/>
<ellipse class="st10" cx="239.4" cy="171.2" rx="6" ry="5"/>
<polygon class="st11" points="78.4,122.5 78,225 73.5,225 73,122 "/>
<polygon class="st11" points="299.4,122.5 299,225 294.5,225 294,122 "/>
<path class="st11" d="M231,343.7h-84c-39-15.8-37-56.1-37-56.1v-13.1v-6.2c0-0.6,0.6-1,1.1-0.6c5.7,4,33.9,23.2,66.9,31.9
	c37,9.8,93-32.7,93-32.7v21.2c0,0,2,40.3-37,56.1h-84"/>
<path class="st11" d="M110.9,269.2c-0.2-0.7-0.1-1.4,0.4-1.9c4.7-4.6,31.2-27.9,76.5-27.9c50.2,0,83.3,27.4,83.3,27.4v1.3
	l-27.8,23.2c-0.2,0.1-0.4,0.1-0.4-0.2c-1.4-4.4-13.6-41.4-40-42.6c0,0-9.3-1.2-12.7,4.6c-0.2,0.2-0.5,0.2-0.6-0.1
	c-0.7-1.7-3.3-5.5-12.8-4.5c0,0,0,0,0,0c-0.3,0.1-38.1,9.3-42.1,43.1C130.9,322.6,113.7,277,110.9,269.2z"/>
<path class="st5" d="M288.4,452.5l57.1-80.9l24.8-101.8h-33.5c-18.1,28.5-29.8,77.8-29.8,77.8c-13.8,7.3-41.5,28.8-41.5,28.8
	c-68,18-155,2-155,2s-29.5-28-43.6-38.6c0,0-11.6-43.7-23.5-69.1l-37.3-4.1l57.8,151.9l15.7,16.8l26.7,24.2l-3.8,16v24l165.3,0.5
	v-30.9L288.4,452.5z"/>
<path class="st1" d="M349,99"/>
<ellipse class="st12" cx="236" cy="171.5" rx="1" ry="1.5"/>
<path class="st13" d="M128.9,376.5c0,0,10.6,28,61.6,28s58.5-28,58.5-28"/>
<circle class="st14" cx="69" cy="191" r="2"/>
<circle class="st14" cx="305" cy="188" r="2"/>
<path class="st15" d="M147,272"/>
<path class="st16" d="M147.3,271c0,0,38.7-17.4,84,0C231.3,271,186.3,293.9,147.3,271z"/>
<path class="st17" d="M151,269.6c0,0,42.1,1.2,72.6-1.2C223.5,268.4,193,256.4,151,269.6z"/>
<path class="st6" d="M108.4,174.7c0.2-2,2.1-3.7,4.8-4.4c6.2-1.8,20.8-4.8,33,1c12.9,6.1-6,9.6-13.8,10.7c-2.2,0.3-4.4,0.4-6.6,0.2
	C119.7,181.6,107.9,180,108.4,174.7z"/>
<ellipse class="st9" cx="128.7" cy="175" rx="10" ry="7.2"/>
<ellipse class="st10" cx="128.2" cy="172.8" rx="6" ry="5"/>
<ellipse class="st12" cx="124.7" cy="173.6" rx="1" ry="1.5"/>
<path class="st18" d="M220.7,172.8c0,0,26.4-5.9,43-1.1c0,0-12-12.4-23.9-8.9C239.9,162.7,222.5,163.1,220.7,172.8z"/>
<path class="st18" d="M107.2,175.6c0,0,26.4-5.9,43-1.1c0,0-12-12.4-23.9-8.9C126.4,165.5,109,165.9,107.2,175.6z"/>
<path class="st19" d="M98.8,170.7c0,0,4.2,2.5,7.5,3.5"/>
<line class="st19" x1="107.2" y1="176.6" x2="99.4" y2="175.6"/>
<path class="st19" d="M107.2,178.3c0,0-6.3,0-7.9,1.3"/>
<path class="st19" d="M272.3,166.7c0,0-4.2,2.5-7.5,3.5"/>
<line class="st19" x1="263.9" y1="172.5" x2="271.7" y2="171.5"/>
<path class="st19" d="M263.9,174.2c0,0,6.3,0,7.9,1.3"/>
<path class="st20" d="M17.5,244.8v-28.2L4.5,187.9c0,0,1-11.4,9.8-3.1c8.8,8.3,9.7,13.8,9.7,13.8s-8-38.3-6.4-40.1s6.4,0,6.4,0
	l10.2,36.4v-40.3c0,0,3-9.3,7.8-2.2c4.8,7.1,4.2,44.9,4.2,44.9l3.6-46.3c0,0,2.8-8.1,5.6-1.3c2.8,6.9,0,42.2,0,42.2l7.6-30.6
	c0,0,3.6-6.5,4.4,0c0.8,6.5-3.6,30.9-3.6,30.9s-2.8,12.4-7.2,21.2c-4.4,8.8-10.8,12.1-10.8,12.1l-2.7,18.6L17.5,244.8z"/>
<path class="st21" d="M18.1,160.7c0,0,2.5-3.9,4.7,0L24,164l-5.2,1.1L18.1,160.7z"/>
<path class="st21" d="M35.9,154c0,0,3.1-3.5,4.6,0.7l0.7,3.5l-5.3,0.4L35.9,154z"/>
<path class="st21" d="M50.5,151c0,0,3.3-3.3,4.6,1l0.5,3.5l-5.3,0L50.5,151z"/>
<path class="st21" d="M63.7,160.4c0,0,2.8-2.7,2.8,1.1l-0.3,3l-3.5-0.3L63.7,160.4z"/>
<path class="st21" d="M5.8,186.2c0,0,2.5-3.9,4.7,0l1.2,3.3l-5.2,1.1L5.8,186.2z"/>
<path class="st20" d="M355.6,247.6v-28.2l13.1-28.8c0,0-1-11.4-9.8-3.1c-8.8,8.3-9.7,13.8-9.7,13.8s8-38.3,6.4-40.1s-6.4,0-6.4,0
	l-10.2,36.4v-40.3c0,0-3-9.3-7.8-2.2c-4.8,7.1-4.2,44.9-4.2,44.9l-3.6-46.3c0,0-2.8-8.1-5.6-1.3c-2.8,6.9,0,42.2,0,42.2l-7.6-30.6
	c0,0-3.6-6.5-4.4,0c-0.8,6.5,3.6,30.9,3.6,30.9s2.8,12.4,7.2,21.2c4.4,8.8,10.8,12.1,10.8,12.1l5.4,18L355.6,247.6z"/>
<path class="st21" d="M355,163.6c0,0-2.5-3.9-4.7,0l-1.2,3.3l5.2,1.1L355,163.6z"/>
<path class="st21" d="M337.2,156.9c0,0-3.1-3.5-4.6,0.7l-0.7,3.5l5.3,0.4L337.2,156.9z"/>
<path class="st21" d="M322.6,153.9c0,0-3.3-3.3-4.6,1l-0.5,3.5l5.3,0L322.6,153.9z"/>
<path class="st21" d="M309.4,164.2c0,0-2.8-2.7-2.8,1.1l0.3,3l3.5-0.3L309.4,164.2z"/>
<path class="st21" d="M367.3,189.1c0,0-2.5-3.9-4.7,0l-1.2,3.3l5.2,1.1L367.3,189.1z"/>
<polygon class="st20" points="6.1,266.7 17.5,244.8 43.1,243.8 43.4,270.8 8.7,267 "/>
<polygon class="st20" points="370.9,269.4 355.6,245.7 332.8,246.1 334.5,273.1 364.3,269.9 "/>
</svg>
