<?xml version="1.0" encoding="utf-8"?>
<!-- Generator: Adobe Illustrator 23.0.2, SVG Export Plug-In . SVG Version: 6.00 Build 0)  -->
<svg version="1.1" id="Layer_1" xmlns="http://www.w3.org/2000/svg" xmlns:xlink="http://www.w3.org/1999/xlink" x="0px" y="0px"
	 viewBox="0 0 375 500" style="enable-background:new 0 0 375 500;" xml:space="preserve">
<style type="text/css">
	.st0{fill:#DDBCA4;}
	.st1{fill:#EAD4C1;}
	.st2{fill:#893434;stroke:#000000;stroke-miterlimit:10;}
	.st3{fill:#54180A;stroke:#000000;stroke-miterlimit:10;}
	.st4{fill:#EAD4C1;stroke:#000000;stroke-miterlimit:10;}
	.st5{stroke:#000000;stroke-miterlimit:10;}
	.st6{fill:#FFFFFF;stroke:#000000;stroke-miterlimit:10;}
	.st7{fill:none;stroke:#000000;stroke-miterlimit:10;}
	.st8{fill:#EAAA9D;stroke:#A86252;stroke-miterlimit:10;}
	.st9{fill:none;stroke:#BC7261;stroke-miterlimit:10;}
	.st10{fill:#3D2C17;stroke:#000000;stroke-width:0.25;stroke-miterlimit:10;}
	.st11{fill:#070707;}
	.st12{fill:#472E1C;}
	.st13{fill:#FFFFFF;}
	.st14{fill:none;stroke:#A58426;stroke-width:2;stroke-miterlimit:10;}
	.st15{fill:#CECECE;}
</style>
<path class="st0" d="M245.79,322.5c0,0-2.8,45.5,5.21,58.5l-18.89,5.5C177.65,397.5,126,384,126,384c8.01-13,5.21-58.5,5.21-58.5"/>
<g id="ears">
	<path class="st1" d="M73.87,168.54c0,0-11.75-9.79-10.57,0.19c0,0,4.2,10.93,3.25,13.94c0,0-3.75,14.07,2.22,11.96
		c5.96-2.11,5.92-4.61,5.92-4.61"/>
	<path class="st1" d="M299.67,166.46c0,0,11.39-10.21,10.57-0.19c0,0-3.8,11.07-2.75,14.05c0,0,4.25,13.93-1.78,12.03
		c-6.04-1.89-6.08-4.39-6.08-4.39"/>
</g>
<path class="st1" d="M73.5,122.5V263c0,15.16,5.45,29.82,15.35,41.3l15.14,17.55c8.58,9.94,21.06,15.66,34.19,15.66H231"/>
<polygon class="st1" points="73.5,122.5 299.5,122.5 299.5,257.92 214,324 78,236 82,137 "/>
<path class="st1" d="M299.5,122.5V263c0,15.16-5.45,29.82-15.35,41.3l-15.14,17.55c-8.58,9.94-21.06,15.66-34.19,15.66H214"/>
<path class="st2" d="M73.5,122.5h226c0,0,8-92-56-102c0,0-70-11-126,6c-35.56,10.79-41.09,51.23-44,78
	C72.53,113.42,73.5,122.5,73.5,122.5z"/>
<path class="st3" d="M73.5,115.5l-63-1c0,0-6-1-10,5s73,3,73,3S73.5,118.5,73.5,115.5z"/>
<path class="st4" d="M283.47,122.5c1.97-33-15.97-29-15.97-29s-11,0-29,0s-14.81,29-14.81,29H283.47z"/>
<path class="st3" d="M184.67,16.19c-1.53-0.34-3.83-1.17-1.93-2.94c1.37-1.28,3.36-1.67,5.17-1.15c3.08,0.9,5.59,4.4-1.08,4.11
	C186.11,16.19,185.38,16.35,184.67,16.19z"/>
<path class="st3" d="M138.5,122.5c30.88-87,46-106,46-106s-35.98,35-59,106"/>
<path class="st3" d="M242.5,93.5c-11-35-53-75-53-75s28.58,13.85,68,75"/>
<path class="st5" d="M153.5,151.5c0,0-36-9-48,0l-7,5h55V151.5z"/>
<path class="st5" d="M214.5,151.5c0,0,36-9,48,0l7,5h-55V151.5z"/>
<path class="st6" d="M147.27,175.49c-0.19-2.86-2.14-5.3-4.79-6.4c-6.19-2.56-20.75-7-32.98,1.4c-11.85,8.15,3.17,13,11.77,14.97
	c3.81,0.87,7.73,0.98,11.58,0.32C139.11,184.71,147.7,182.03,147.27,175.49z"/>
<path class="st6" d="M221.14,175.49c0.19-2.86,2.14-5.3,4.79-6.4c6.19-2.56,20.75-7,32.98,1.4c12.87,8.85-5.97,13.82-13.83,15.42
	c-2.16,0.44-4.37,0.55-6.57,0.29C232.49,185.51,220.64,183.15,221.14,175.49z"/>
<path class="st7" d="M181.5,209.5c0,0-21,14-5,20"/>
<path class="st7" d="M197.49,209.5c0,0,21,14,5,20"/>
<ellipse cx="184" cy="228" rx="2" ry="1"/>
<ellipse cx="196" cy="228" rx="2" ry="1"/>
<path class="st8" d="M189,261c-16-11-42,11-42,11s38.5,49.5,84,0C231,272,205,250,189,261"/>
<path class="st9" d="M147.5,272.5l30.48,4.46c6.98,1.02,14.06,1.03,21.04,0.04l31.48-4.5"/>
<ellipse class="st10" cx="127.5" cy="175.75" rx="10" ry="10.25"/>
<ellipse class="st10" cx="241.5" cy="175.75" rx="10" ry="10.25"/>
<circle class="st11" cx="128" cy="176" r="6"/>
<circle class="st11" cx="242" cy="176" r="6"/>
<polygon class="st12" points="78.43,122.5 78,225 73.5,225 73,122 "/>
<polygon class="st12" points="299.43,122.5 299,225 294.5,225 294,122 "/>
<path class="st12" d="M231,337.5h-84C108,323,110,286,110,286v-12v-5.72c0-0.54,0.6-0.88,1.06-0.58
	c5.73,3.71,33.95,21.28,66.94,29.3c37,9,93-30,93-30v19.5c0,0,2,37-37,51.5h-84"/>
<path class="st12" d="M110.9,268.36c-0.24-0.51-0.09-1.11,0.36-1.45c4.71-3.49,31.11-21.41,76.24-21.41c50,0,83,21,83,21v1
	l-27.7,17.81c-0.16,0.1-0.36,0.04-0.43-0.13c-1.36-3.37-13.54-31.73-39.87-32.67c0,0-9.3-0.93-12.65,3.49
	c-0.15,0.19-0.46,0.16-0.57-0.05c-0.68-1.28-3.3-4.22-12.76-3.44c-0.01,0,0,0-0.01,0c-0.3,0.06-38.01,7.1-42,33
	C130.84,309.32,113.74,274.39,110.9,268.36z"/>
<path class="st5" d="M279.5,474.5l7,25h89v-8c-15-76-52-108-52-108c-13-6-58-7-58-7c-68,18-155,2-155,2s-45,1-58,7c0,0-37,32-52,108
	v6h82l7-25l7-12l-2,14l-5,23h188l-2-31L279.5,474.5z"/>
<path class="st1" d="M349,99"/>
<ellipse class="st13" cx="124" cy="176.5" rx="1" ry="1.5"/>
<ellipse class="st13" cx="238" cy="176.5" rx="1" ry="1.5"/>
<path class="st14" d="M128.85,376.5c0,0,10.65,28,61.65,28s58.51-28,58.51-28"/>
<circle class="st15" cx="69" cy="191" r="2"/>
<circle class="st15" cx="305" cy="188" r="2"/>
</svg>
